<svg width="24" height="24" viewBox="0 0 24 24" fill="none" xmlns="http://www.w3.org/2000/svg">
<path d="M3 13.0002H4V20.0002C4 21.1032 4.897 22.0002 6 22.0002H18C19.103 22.0002 20 21.1032 20 20.0002V13.0002H21C21.1978 13.0002 21.391 12.9415 21.5555 12.8316C21.7199 12.7217 21.848 12.5656 21.9237 12.3829C21.9993 12.2002 22.0192 11.9991 21.9806 11.8052C21.942 11.6112 21.8468 11.4331 21.707 11.2932L12.707 2.2932C12.6142 2.20026 12.504 2.12652 12.3827 2.07621C12.2614 2.0259 12.1313 2 12 2C11.8687 2 11.7386 2.0259 11.6173 2.07621C11.496 2.12652 11.3858 2.20026 11.293 2.2932L2.293 11.2932C2.15319 11.4331 2.05798 11.6112 2.01942 11.8052C1.98085 11.9991 2.00065 12.2002 2.07632 12.3829C2.15199 12.5656 2.28013 12.7217 2.44454 12.8316C2.60895 12.9415 2.80225 13.0002 3 13.0002ZM10 20.0002V15.0002H14V20.0002H10ZM12 4.4142L18 10.4142V15.0002L18.001 20.0002H16V15.0002C16 13.8972 15.103 13.0002 14 13.0002H10C8.897 13.0002 8 13.8972 8 15.0002V20.0002H6V10.4142L12 4.4142Z" fill="#B4E48E"/>
</svg>
