<svg width="25" height="24" viewBox="0 0 25 24" fill="none" xmlns="http://www.w3.org/2000/svg">
<path d="M20.5 12C20.2596 12.0017 20.0214 12.0468 19.797 12.133L17.399 10.17C17.458 9.956 17.5 9.734 17.5 9.5C17.5 8.114 16.386 7 15 7C13.614 7 12.5 8.114 12.5 9.5C12.5 9.896 12.6 10.265 12.762 10.597L9.853 14.035C9.73656 14.0132 9.61845 14.0015 9.5 14C9.321 14 9.152 14.03 8.988 14.074L6.425 11.511C6.47 11.348 6.5 11.179 6.5 11C6.5 9.892 5.608 9 4.5 9C3.392 9 2.5 9.892 2.5 11C2.5 12.108 3.392 13 4.5 13C4.679 13 4.848 12.97 5.012 12.926L7.575 15.489C7.52693 15.6551 7.5017 15.8271 7.5 16C7.5 17.108 8.392 18 9.5 18C10.608 18 11.5 17.108 11.5 16C11.5 15.763 11.452 15.54 11.377 15.329L14.29 11.887C14.517 11.953 14.752 12 15 12C15.3946 11.9978 15.7831 11.9015 16.133 11.719L18.532 13.682C18.5132 13.787 18.5025 13.8933 18.5 14C18.5 15.108 19.392 16 20.5 16C21.608 16 22.5 15.108 22.5 14C22.5 12.892 21.608 12 20.5 12Z" fill="#FFF7E9"/>
</svg>
